<svg xmlns="http://www.w3.org/2000/svg" viewBox="0 0 208.31 213.72"><defs><style>.cls-1{fill:#154f8c;}.cls-2{fill:#010101;}.cls-3{fill:#183b64;}.cls-4{fill:#fcb918;}</style></defs><g id="Layer_2" data-name="Layer 2"><g id="Layer_1-2" data-name="Layer 1"><path class="cls-1" d="M48.9,75.64A59,59,0,0,1,141.29,27l3-3A63.14,63.14,0,0,0,57.15,113.2l3-3A58.65,58.65,0,0,1,48.9,75.64Z"/><path class="cls-1" d="M157.24,36.22l-3,3a59,59,0,0,1-81.66,83.75l-3,2.95a63.13,63.13,0,0,0,87.57-89.66Z"/><path class="cls-1" d="M52.84,115.43a67.94,67.94,0,0,1,94.88-94.88l3-3A72.1,72.1,0,0,0,49.86,118.41Z"/><path class="cls-1" d="M163.63,29.84l-3,3a67.95,67.95,0,0,1-95.59,95.59l-3,3A72.11,72.11,0,0,0,163.63,29.84Z"/><path class="cls-1" d="M83,207.38l-2.76,4.46L74.73,203h2.12l3.37,5.42,1.7-2.75L80.27,203h2.12l.59,1,.6-1h2.11L84,205.69l1.72,2.75L89.13,203h2.1l-5.47,8.82Z"/><path class="cls-1" d="M100.11,211.84H95a2.68,2.68,0,0,1-2.7-2.68v-3.44A2.69,2.69,0,0,1,95,203h3.58a2.7,2.7,0,0,1,2.7,2.7h-1.8a.9.9,0,0,0-.9-.9H95a.9.9,0,0,0-.9.9v3.44a.9.9,0,0,0,.9.9h4.48v-1.72h-1.8v-1.8h3.6v7.18Z"/><path class="cls-1" d="M103.39,210.06h6.32a.87.87,0,0,0,.86-.86.86.86,0,0,0-.86-.86H106a2.66,2.66,0,0,1,0-5.32h6.32l-1.12,1.8H106a.86.86,0,0,0,0,1.72h3.67a2.65,2.65,0,1,1,0,5.3h-5.12l-1.16,1.88Z"/><path class="cls-1" d="M123.67,211.84a2.73,2.73,0,0,1-1.77-.66,2.66,2.66,0,0,1-.23-3.76,2.62,2.62,0,0,1-.67-1.75,2.66,2.66,0,0,1,2.67-2.65h3.67a2.66,2.66,0,0,1,2.66,2.65,2.61,2.61,0,0,1-.67,1.75,2.66,2.66,0,0,1-2,4.42Zm4.53-6.17a.86.86,0,0,0-.86-.86h-3.67a.86.86,0,1,0,0,1.72h3.67A.87.87,0,0,0,128.2,205.67Zm0,3.51a.87.87,0,0,0-.86-.86h-3.67a.86.86,0,0,0,0,1.72h3.67A.86.86,0,0,0,128.2,209.18Z"/><path class="cls-1" d="M139.31,211.84v-3.52h-7.19V203h1.8v3.51h5.39V203h1.8v8.82Z"/><path class="cls-2" d="M26.7,174a29.64,29.64,0,0,0-.24-3.33C25.69,168.85,22,166,16.77,166c-7.32,0-11.94,5.31-11.94,11.58a14.68,14.68,0,0,0,15,14.48,19.12,19.12,0,0,0,9.53-2.18l-.56,1.73c-.93.77-5,2.42-11.3,2.42-1.49,0-5.87-.17-9.13-1.77C3.1,189.63,0,185.05,0,179.9a14.16,14.16,0,0,1,6.35-12,19.76,19.76,0,0,1,12-3.34,37.28,37.28,0,0,1,8.4,1.05c.24-.52.72-3.1.84-3.58l.93-.2a100.17,100.17,0,0,0-.89,12.42Z"/><path class="cls-2" d="M48.3,192.65a31.3,31.3,0,0,0,4.06-.56c-.73-2.09-3.58-10.62-4.23-11.79-1.4,0-7.8.29-9.28.53A94.79,94.79,0,0,0,36,192.09a23.14,23.14,0,0,0,3.46.56l.16.84c-1.25-.08-4.9-.16-6.07-.16s-3.74.08-4.66.16l.12-.84a31,31,0,0,0,3.45-.56c1.45-2.54,9.45-24.17,10-25.7a26.7,26.7,0,0,0-3.18-.52l0-.84c1.21.08,4.54.16,5.23.16,1.68,0,5.71-.08,6.87-.16l-.12.84a23.06,23.06,0,0,0-3.05.52c.48,1.77,2.69,8.09,4.22,12.31a137.85,137.85,0,0,0,5.47,13.39c1.16.24,2.33.4,3.53.56l.13.84c-.49-.08-4.55-.16-6.68-.16-1.17,0-5.71.08-6.8.16Zm-4.55-25.57h-.08c-1.24,3.57-3.86,10.53-4.26,11.86l8.44.16C47,176.44,44.44,169.29,43.75,167.08Z"/><path class="cls-2" d="M66.27,176.36c0-1.44,0-9.16-.2-9.93-.68-.16-3.41-.4-4.3-.48l-.12-.84,8.68,0c3.82,0,8.61,0,11.34,1.12,2.13.85,3.46,2.37,3.46,4.59,0,2.53-2.57,5.87-5.67,7.59.44,1,6.92,11.55,11.1,16l-1.77.28C86,193.33,75.28,181,74.64,180.14c-1.53.13-3.18.25-3.86.25v1c0,2.61.08,8.81.2,10.66a41.57,41.57,0,0,0,4.22.56l.16.84c-1-.08-5.07-.16-6.91-.16-1.65,0-5.88.08-6.8.16l.16-.84a36.94,36.94,0,0,0,4.26-.56c.16-1.17.2-9.05.2-13.27Zm4.51,2.78a13.8,13.8,0,0,0,4.9-.77,6.77,6.77,0,0,0,4.59-6.47c0-2.57-2.34-5.71-9.29-5.71-.12,1.65-.2,8.85-.2,11.7Z"/><path class="cls-2" d="M101.74,176.73c0-3-.08-8.93-.2-9.85-6.43,0-9.33,1-10.41,1.68a29.45,29.45,0,0,0-.81,3.78l-.92.24c.16-1.93.64-7,.6-10.13l.93.16c0,.53.12,1.77.24,2.62.64.12,7.56.4,13,.4,5.83,0,12.78-.28,13.42-.4.17-.49.41-1.73.57-2.5l1-.16c-.24.93-1.16,9.17-1.28,10.38l-.93-.24c.08-1.61.12-3.26.08-4.15-1-.8-6.59-1.68-10.49-1.68-.12,1.08-.2,7-.2,9.85v1.81c0,3.53.08,10.33.2,13.55.76.12,4.42.48,5.18.56l.17.84c-1-.08-5.67-.16-7.89-.16-1.81,0-6.63.08-7.8.16l.2-.84c.93-.08,4.19-.44,5.15-.56.12-3.14.2-10.06.2-13.55Z"/><path class="cls-2" d="M124.31,189.47a12.67,12.67,0,0,1-3.86-9.73c0-8,6.55-15.2,17.65-15.2,4.26,0,7.64.69,11.14,3.26a12.48,12.48,0,0,1,4.86,10c0,9.85-7.48,16.21-17.37,16.21C132.67,194,128,193.29,124.31,189.47Zm24.89-8.76c0-8.53-5.92-14.64-12.59-14.64-5.51,0-11.54,3.7-11.54,12,0,7.2,5.79,14.28,13.63,14.28C144.45,192.33,149.2,187.14,149.2,180.71Z"/><path class="cls-2" d="M166.65,179.34c0,5.23,0,11.94.2,12.75,1,.24,3.42.48,4.23.56l.2.84c-.89-.08-5.07-.16-7.56-.16-1.37,0-5.07.08-6.28.16l.16-.84c.69,0,3.42-.4,4.27-.56.16-1.69.2-9.13.2-13.07v-2.37c0-1.33,0-8.85-.2-10.22-.81-.16-3.46-.48-4.23-.56l-.2-.84c.77.08,4.47.16,7.64.16,2,0,5.51-.08,6.2-.16l-.2.84c-.81.08-2.78.4-4.23.56-.16.81-.2,5.47-.2,10.42Z"/><path class="cls-2" d="M174.82,165.19c2.25-.08,6-.12,9.16-.29.89,1.37,9,11.51,9.65,12.23,1.05,1.12,7.44,8.89,8.73,10,0-4.46,0-18.58-.84-20.67-.81-.16-2.94-.48-4.06-.56l-.21-.84c.77.08,5.11.16,6,.16s4.22-.08,5.06-.16l-.16.84c-.52.08-2,.4-3.06.56-.48,1.57-.68,7.24-.76,8.53-.12,1.89-.44,18.78-.68,20.38-1.21-1.12-12.35-14.11-13.27-15.16-.57-.6-8.2-9.93-9.53-11.46-.12.81.36,21.92.88,23.37.61.2,3.62.48,4.39.56l.12.84c-.73-.08-4.91-.16-6-.16s-4.31.08-5.47.16l.12-.84a25.08,25.08,0,0,0,3.33-.56c.69-1.69,1.13-24.25,1.13-25.58A35.26,35.26,0,0,0,175,166Z"/><circle class="cls-1" cx="107.92" cy="75.64" r="21.02"/><polygon class="cls-3" points="38.61 146.35 85.01 85.41 85.01 99.81 98.17 100.82 38.61 146.35"/><path class="cls-4" d="M68.05,111.12l-13.7,18c.49.5,1,1,1.51,1.45l18-13.78A54.71,54.71,0,0,1,68.05,111.12Z"/><path class="cls-4" d="M77.31,119.38,59,133.38a75.34,75.34,0,0,0,46.34,17.9V129A53.11,53.11,0,0,1,77.31,119.38Z"/><path class="cls-4" d="M65.33,107.83A53.15,53.15,0,0,1,54.6,78.22H32.28A75.38,75.38,0,0,0,51.47,126Z"/><polygon class="cls-3" points="177.23 4.94 130.84 65.87 130.84 51.48 117.67 50.47 177.23 4.94"/><path class="cls-4" d="M160,20.73,142,34.52a52.83,52.83,0,0,1,5.84,5.65l13.69-18C161,21.69,160.49,21.21,160,20.73Z"/><path class="cls-4" d="M156.85,17.91A75.34,75.34,0,0,0,110.5,0V22.32a53,53,0,0,1,28,9.59Z"/><path class="cls-4" d="M150.51,43.46a53.12,53.12,0,0,1,10.74,29.6h22.31a75.36,75.36,0,0,0-19.18-47.81Z"/><polygon class="cls-1" points="38.61 146.35 85.01 85.41 85.01 99.81 98.17 100.82 38.61 146.35"/><polygon class="cls-1" points="177.23 4.94 130.84 65.87 130.84 51.48 117.67 50.47 177.23 4.94"/></g></g></svg>